<svg width="152" height="150" viewBox="0 0 152 150" fill="none" xmlns="http://www.w3.org/2000/svg">
<g id="play">
<path id="Oval 2" fill-rule="evenodd" clip-rule="evenodd" d="M0 74.5042C0 115.659 33.7158 149.008 75.2907 149.008C116.866 149.008 150.581 115.659 150.581 74.5042C150.581 33.3495 116.866 0 75.2907 0C33.7158 0 0 33.3495 0 74.5042ZM144.776 74.5045C144.776 112.438 113.674 143.203 75.291 143.203C36.9085 143.203 5.80606 112.438 5.80606 74.5045C5.80606 36.5706 36.9085 5.8061 75.291 5.8061C113.674 5.8061 144.776 36.5706 144.776 74.5045Z" fill="#AF0C3E"/>
<path id="Path 2" d="M85.6893 74.7418L63.6094 52.9018L67.6922 48.7741L93.9451 74.7418L69.1365 99.2808L65.0537 95.1531L85.6893 74.7418Z" fill="#AF0C3E"/>
</g>
</svg>
